<?xml version="1.0" standalone="no"?>
<!DOCTYPE svg PUBLIC "-//W3C//DTD SVG 20010904//EN"
 "http://www.w3.org/TR/2001/REC-SVG-20010904/DTD/svg10.dtd">
<svg version="1.0" xmlns="http://www.w3.org/2000/svg"
 width="1080.000000pt" height="520.000000pt" viewBox="0 0 1080.000000 520.000000"
 preserveAspectRatio="xMidYMid meet">

<g transform="translate(0.000000,520.000000) scale(0.100000,-0.100000)"
fill="#000000" stroke="none">
<path d="M3010 4283 c-97 -16 -211 -76 -262 -137 -32 -39 -76 -131 -92 -191
-34 -136 -48 -531 -26 -758 35 -359 184 -501 525 -501 226 1 353 69 419 227
24 58 46 179 46 252 l0 65 -159 0 -158 0 -6 -94 c-9 -159 -49 -218 -147 -218
-97 1 -147 53 -177 180 -15 66 -18 123 -18 387 0 325 6 384 47 473 28 59 69
85 139 90 54 4 60 2 88 -25 34 -34 48 -78 57 -180 l7 -73 160 0 160 0 -7 85
c-25 306 -157 427 -461 424 -60 -1 -121 -4 -135 -6z"/>
<path d="M4595 4271 c-213 -53 -305 -177 -305 -411 0 -76 5 -106 23 -150 54
-131 117 -191 347 -328 224 -133 289 -207 275 -311 -13 -98 -65 -143 -166
-142 -122 0 -179 73 -179 226 l0 45 -159 0 -159 0 -7 -27 c-9 -38 3 -147 26
-225 35 -122 128 -205 269 -239 66 -16 282 -17 360 -1 204 40 314 152 340 348
20 153 -21 292 -115 388 -50 52 -162 127 -310 207 -175 95 -242 186 -214 292
19 75 78 117 161 117 86 0 135 -59 145 -171 l6 -59 160 0 160 0 -6 88 c-13
199 -104 317 -278 357 -93 21 -283 19 -374 -4z"/>
<path d="M1210 3495 l0 -775 150 0 150 0 2 562 3 563 210 -563 210 -562 212 0
213 0 0 775 0 775 -150 0 -150 0 -2 -534 -3 -535 -205 535 -205 534 -217 0
-218 0 0 -775z"/>
<path d="M5380 4140 l0 -130 178 -2 177 -3 3 -642 2 -643 160 0 160 0 0 645 0
645 180 0 180 0 0 130 0 130 -520 0 -520 0 0 -130z"/>
<path d="M6739 4228 c-29 -113 -401 -1457 -409 -1481 l-9 -27 162 2 162 3 36
140 c20 77 39 152 43 168 l6 27 222 -2 222 -3 41 -165 41 -165 173 -3 c138 -2
172 0 168 10 -2 7 -95 348 -206 758 -111 410 -204 753 -207 763 -5 15 -24 17
-219 17 l-214 0 -12 -42z m280 -569 c38 -162 72 -309 76 -326 l7 -33 -151 0
c-90 0 -151 4 -151 10 0 5 32 152 70 326 39 174 70 319 70 322 0 27 20 -47 79
-299z"/>
<path d="M7500 4140 l0 -130 180 0 180 0 0 -645 0 -645 160 0 160 0 2 643 3
642 178 3 177 2 0 130 0 130 -520 0 -520 0 0 -130z"/>
<path d="M8690 3495 l0 -775 435 0 436 0 -3 118 -3 117 -267 3 -268 2 0 225 0
225 240 0 240 0 0 120 0 120 -240 0 -240 0 0 190 0 190 260 0 260 0 0 120 0
120 -425 0 -425 0 0 -775z"/>
<path d="M6884 2240 c-96 -20 -169 -71 -206 -144 -27 -52 -37 -203 -17 -274
19 -69 113 -157 283 -262 203 -126 256 -190 256 -310 0 -141 -79 -219 -223
-220 -107 0 -171 36 -208 115 -10 22 -19 58 -19 80 -1 78 -6 85 -68 85 l-55 0
6 -81 c13 -197 126 -293 342 -293 107 0 156 13 221 57 75 50 106 119 112 250
3 87 1 110 -17 159 -30 79 -72 117 -266 242 -94 60 -183 121 -199 135 -44 40
-66 96 -66 171 0 138 66 200 211 200 85 0 122 -10 157 -43 36 -33 53 -72 60
-140 l7 -62 59 -3 59 -3 -7 66 c-19 188 -110 274 -296 281 -47 2 -103 -1 -126
-6z"/>
<path d="M1212 1708 l3 -513 24 -60 c33 -83 106 -154 186 -180 85 -28 238 -26
317 4 61 24 127 80 154 133 46 88 47 108 51 631 l4 497 -60 0 -61 0 0 -475 c0
-296 -4 -493 -11 -524 -26 -120 -112 -191 -234 -191 -33 0 -77 5 -98 11 -56
15 -112 71 -139 137 -23 56 -23 63 -26 550 l-3 492 -55 0 -55 0 3 -512z"/>
<path d="M2280 1590 l0 -630 55 0 55 0 0 557 c0 306 3 553 7 549 4 -4 120
-253 258 -554 l251 -547 87 -3 87 -3 0 631 0 630 -55 0 -55 0 -2 -552 -3 -553
-255 552 -255 553 -87 0 -88 0 0 -630z"/>
<path d="M3430 1590 l0 -630 60 0 60 0 0 630 0 630 -60 0 -60 0 0 -630z"/>
<path d="M3784 2203 c3 -10 75 -270 161 -578 86 -308 163 -584 171 -613 l16
-53 71 3 72 3 172 620 c95 341 172 623 173 628 0 4 -24 7 -54 7 -43 0 -55 -4
-58 -17 -102 -377 -303 -1093 -308 -1093 -3 0 -68 233 -143 518 -75 284 -142
534 -147 555 l-11 37 -60 0 c-53 0 -60 -2 -55 -17z"/>
<path d="M4850 1590 l0 -630 295 0 295 0 0 45 0 45 -237 2 -238 3 -3 253 -2
252 220 0 220 0 0 50 0 50 -220 0 -220 0 2 233 3 232 228 3 227 2 0 45 0 45
-285 0 -285 0 0 -630z"/>
<path d="M5700 1590 l0 -630 55 0 55 0 0 305 0 305 129 0 c143 0 181 -9 229
-54 47 -44 62 -105 63 -255 1 -69 4 -164 7 -211 l7 -85 51 -3 51 -3 -4 208
c-7 364 -25 416 -147 438 l-39 8 61 27 c100 46 131 114 132 286 0 119 -20 188
-70 235 -55 52 -96 59 -354 59 l-226 0 0 -630z m425 529 c85 -23 110 -69 110
-204 0 -120 -23 -180 -83 -217 -34 -21 -51 -23 -189 -26 l-153 -4 0 231 0 231
138 0 c75 0 155 -5 177 -11z"/>
<path d="M7630 1590 l0 -630 55 0 55 0 0 630 0 630 -55 0 -55 0 0 -630z"/>
<path d="M7980 2175 l0 -45 155 0 155 0 0 -585 0 -585 55 0 55 0 2 583 3 582
153 3 152 3 0 44 0 45 -365 0 -365 0 0 -45z"/>
<path d="M8889 2118 c27 -57 108 -224 180 -372 l131 -269 0 -258 0 -259 55 0
55 0 0 260 0 261 156 322 c86 177 167 343 180 370 l24 47 -57 0 -58 0 -149
-310 c-82 -171 -151 -309 -152 -307 -2 1 -66 140 -143 307 l-140 305 -65 3
-65 3 48 -103z"/>
</g>
</svg>
