<svg id="svg" version="1.1" xmlns="http://www.w3.org/2000/svg" xmlns:xlink="http://www.w3.org/1999/xlink" width="400" height="476.33333333333337" viewBox="0, 0, 400,476.33333333333337"><g id="svgg"><path id="path0" d="M50.202 51.696 L 16.333 87.058 16.340 156.446 L 16.347 225.833 47.840 257.904 C 65.161 275.542,79.333 290.055,79.333 290.154 C 79.333 290.253,65.158 290.333,47.833 290.333 L 16.333 290.333 16.349 341.250 L 16.364 392.167 50.254 426.417 L 84.145 460.667 199.836 460.667 L 315.528 460.667 349.420 426.417 L 383.313 392.167 383.323 319.058 L 383.333 245.950 354.102 216.392 L 324.870 186.833 354.102 186.748 L 383.333 186.663 383.333 136.843 L 383.333 87.023 349.458 51.678 L 315.582 16.333 199.826 16.333 L 84.070 16.333 50.202 51.696 M338.083 62.885 L 367.333 93.426 367.333 132.046 L 367.333 170.667 324.167 170.667 L 281.000 170.667 281.000 182.667 L 281.000 194.667 295.750 194.667 L 310.500 194.667 338.894 223.750 L 367.289 252.833 367.311 319.196 L 367.333 385.559 338.114 415.113 L 308.894 444.667 199.846 444.667 L 90.798 444.667 61.566 415.083 L 32.334 385.500 32.334 345.917 L 32.333 306.333 73.833 306.333 L 115.333 306.333 115.333 292.667 L 115.333 279.000 103.083 278.985 L 90.833 278.970 61.583 249.128 L 32.333 219.286 32.333 156.381 L 32.333 93.476 61.583 62.906 L 90.833 32.337 199.833 32.341 L 308.833 32.345 338.083 62.885 M185.012 117.119 C 185.647 117.708,236.036 157.114,236.583 157.450 C 236.915 157.654,237.000 153.516,237.000 137.186 L 237.000 116.667 210.762 116.667 C 188.647 116.667,184.601 116.738,185.012 117.119 M159.333 173.959 L 159.333 194.667 186.210 194.667 L 213.087 194.667 211.460 193.383 C 210.565 192.677,198.658 183.508,185.000 173.007 C 171.342 162.506,159.979 153.765,159.750 153.583 C 159.418 153.319,159.333 157.439,159.333 173.959 M159.667 318.500 L 159.667 340.000 198.333 340.000 L 237.000 340.000 237.000 332.500 L 237.000 325.000 252.667 325.000 L 268.333 325.000 268.333 318.167 L 268.333 311.333 252.667 311.333 L 237.000 311.333 237.000 304.167 L 237.000 297.000 198.333 297.000 L 159.667 297.000 159.667 318.500 " stroke="none" fill="#040404" fill-rule="evenodd"></path><path id="path1" d="M41.363 43.008 L 4.000 82.016 4.000 156.455 L 4.000 230.895 27.016 254.364 L 50.032 277.833 27.016 277.919 L 4.000 278.005 4.000 337.633 L 4.000 397.260 41.417 435.102 L 78.833 472.944 199.833 472.950 L 320.833 472.955 358.250 435.100 L 395.667 397.245 395.667 319.275 L 395.667 241.305 375.270 220.236 L 354.874 199.167 375.270 199.081 L 395.667 198.995 395.667 140.509 L 395.667 82.024 358.297 43.012 L 320.926 4.000 199.826 4.000 L 78.725 4.000 41.363 43.008 M349.573 51.605 L 383.314 86.833 383.323 136.748 L 383.333 186.663 354.194 186.748 L 325.054 186.833 354.183 216.333 L 383.313 245.833 383.323 319.060 L 383.333 392.286 349.467 426.476 L 315.601 460.667 199.828 460.667 L 84.055 460.667 50.194 426.445 L 16.333 392.223 16.333 341.280 L 16.333 290.337 47.845 290.252 L 79.356 290.167 47.845 258.036 L 16.333 225.906 16.349 156.369 L 16.364 86.833 50.099 51.601 L 83.833 16.369 199.833 16.373 L 315.833 16.377 349.573 51.605 M84.230 39.417 C 80.474 43.313,67.267 57.075,54.881 70.000 L 32.362 93.500 32.352 156.333 L 32.341 219.167 61.528 248.913 L 90.714 278.659 102.940 278.746 L 115.167 278.833 115.254 292.582 L 115.341 306.331 73.920 306.415 L 32.500 306.500 32.429 346.000 L 32.358 385.500 61.595 415.057 L 90.833 444.614 199.833 444.625 L 308.833 444.636 338.071 415.068 L 367.309 385.500 367.321 319.302 L 367.333 253.105 339.083 224.079 L 310.833 195.052 295.917 195.026 L 281.000 195.000 281.000 182.833 L 281.000 170.667 324.167 170.667 L 367.333 170.667 367.324 132.083 L 367.316 93.500 337.986 62.917 L 308.657 32.333 199.858 32.333 L 91.058 32.333 84.230 39.417 M332.430 68.750 L 359.330 96.833 359.248 129.667 L 359.167 162.500 320.083 162.585 L 281.000 162.669 281.000 129.335 L 281.000 96.000 259.000 96.000 L 237.000 96.000 237.000 102.167 L 237.000 108.333 205.305 108.333 L 173.611 108.333 165.758 102.167 L 157.904 96.000 136.619 96.000 L 115.333 96.000 115.333 155.667 L 115.333 215.333 137.333 215.333 L 159.333 215.333 159.333 209.167 L 159.333 203.000 191.750 203.009 L 224.167 203.018 232.333 209.333 L 240.500 215.649 260.750 215.658 L 281.000 215.667 281.000 209.333 L 281.000 203.000 294.083 203.028 L 307.167 203.056 333.250 229.724 L 359.333 256.393 359.324 319.280 L 359.315 382.167 332.241 409.433 L 305.167 436.700 199.833 436.699 L 94.500 436.699 67.426 409.433 L 40.352 382.167 40.343 348.417 L 40.333 314.667 77.833 314.667 L 115.333 314.667 115.333 339.423 L 115.333 364.179 129.401 374.423 L 143.468 384.667 198.731 384.667 L 253.993 384.667 267.497 374.933 L 281.000 365.199 281.000 345.099 L 281.000 325.000 278.667 325.000 L 276.333 325.000 276.333 318.167 L 276.333 311.333 278.667 311.333 L 281.000 311.333 281.000 292.193 L 281.000 273.052 267.159 263.026 L 253.318 253.000 198.296 253.000 L 143.274 253.000 130.887 261.832 L 118.500 270.663 106.301 270.665 L 94.102 270.667 67.222 243.250 L 40.342 215.833 40.343 156.333 L 40.344 96.833 67.235 68.750 L 94.127 40.667 199.828 40.667 L 305.530 40.667 332.430 68.750 M199.842 139.079 C 224.480 158.372,244.795 174.209,244.986 174.273 C 245.225 174.353,245.333 163.451,245.333 139.194 L 245.333 104.000 259.167 104.000 L 273.000 104.000 273.000 155.833 L 273.000 207.667 258.179 207.667 L 243.358 207.667 197.429 172.316 L 151.500 136.966 151.415 172.150 L 151.330 207.333 137.332 207.333 L 123.333 207.333 123.333 155.667 L 123.333 104.000 139.189 104.000 L 155.045 104.000 199.842 139.079 M237.253 137.108 C 237.325 154.517,237.267 157.700,236.877 157.608 C 236.292 157.471,184.378 116.921,184.352 116.581 C 184.342 116.443,196.221 116.368,210.750 116.415 L 237.167 116.500 237.253 137.108 M186.167 173.768 C 200.467 184.758,212.463 194.032,212.824 194.375 C 213.467 194.986,212.887 195.000,186.407 195.000 L 159.333 195.000 159.333 174.147 C 159.333 157.556,159.418 153.344,159.750 153.540 C 159.979 153.675,171.867 162.777,186.167 173.768 M254.888 264.083 C 257.251 265.779,262.293 269.408,266.092 272.148 L 273.000 277.130 273.000 290.065 L 273.000 303.000 259.173 303.000 L 245.347 303.000 245.257 295.917 L 245.167 288.833 198.248 288.749 L 151.330 288.664 151.415 318.416 L 151.500 348.167 198.333 348.167 L 245.167 348.167 245.256 340.583 L 245.346 333.000 259.173 333.000 L 273.000 333.000 272.990 347.083 L 272.979 361.167 262.185 368.917 L 251.391 376.667 198.609 376.667 L 145.827 376.667 134.601 368.417 L 123.374 360.167 123.354 318.638 L 123.333 277.109 134.583 269.068 L 145.833 261.027 198.213 261.014 L 250.592 261.000 254.888 264.083 M237.257 304.083 L 237.346 311.333 252.840 311.333 L 268.333 311.333 268.333 318.167 L 268.333 325.000 252.840 325.000 L 237.346 325.000 237.256 332.583 L 237.167 340.167 198.333 340.167 L 159.500 340.167 159.414 318.833 C 159.366 307.100,159.399 297.312,159.487 297.082 C 159.614 296.749,167.575 296.681,198.407 296.749 L 237.167 296.833 237.257 304.083 " stroke="none" fill="#fbfbfb" fill-rule="evenodd"></path><path id="path2" d="M67.439 68.603 L 40.711 96.500 40.708 156.333 L 40.706 216.167 67.409 243.333 L 94.113 270.500 106.215 270.587 L 118.316 270.675 130.717 261.837 L 143.118 253.000 198.311 253.000 L 253.504 253.000 267.235 262.917 L 280.966 272.833 280.983 292.083 L 281.000 311.333 278.833 311.333 L 276.667 311.333 276.667 318.167 L 276.667 325.000 278.836 325.000 L 281.005 325.000 280.919 345.226 L 280.833 365.451 267.333 375.206 L 253.833 384.960 198.774 384.980 L 143.714 385.000 129.524 374.645 L 115.333 364.290 115.333 339.478 L 115.333 314.667 78.000 314.667 L 40.667 314.667 40.667 348.463 L 40.667 382.259 67.391 409.296 L 94.115 436.333 199.823 436.333 L 305.530 436.333 332.265 409.322 L 359.000 382.310 358.991 319.238 L 358.982 256.167 332.942 229.583 L 306.902 203.000 293.951 203.000 L 281.000 203.000 281.000 209.333 L 281.000 215.667 260.704 215.667 L 240.409 215.667 232.167 209.333 L 223.925 203.000 191.629 203.000 L 159.333 203.000 159.333 209.387 L 159.333 215.774 149.583 215.554 C 144.221 215.433,134.321 215.334,127.583 215.334 L 115.333 215.333 115.333 155.667 L 115.333 96.000 136.695 96.000 L 158.056 96.000 165.909 102.167 L 173.762 108.333 205.381 108.333 L 237.000 108.333 237.000 102.167 L 237.000 96.000 259.000 96.000 L 281.000 96.000 281.000 129.167 L 281.000 162.333 320.000 162.333 L 359.000 162.333 358.981 129.417 L 358.962 96.500 332.231 68.606 L 305.500 40.711 199.833 40.709 L 94.167 40.706 67.439 68.603 M123.333 155.667 L 123.333 207.333 137.333 207.333 L 151.333 207.333 151.333 172.167 C 151.333 152.825,151.418 137.000,151.522 137.000 C 151.672 137.000,202.521 176.060,236.444 202.233 L 243.054 207.333 257.860 207.333 L 272.667 207.333 272.667 155.667 L 272.667 104.000 259.002 104.000 L 245.336 104.000 245.252 139.352 L 245.167 174.703 200.022 139.352 L 154.877 104.000 139.105 104.000 L 123.333 104.000 123.333 155.667 M134.427 269.271 L 123.354 277.167 123.344 318.550 L 123.333 359.933 134.674 368.300 L 146.014 376.667 198.604 376.667 L 251.193 376.667 262.013 368.885 L 272.833 361.104 272.920 347.219 L 273.007 333.333 259.170 333.333 L 245.333 333.333 245.333 340.833 L 245.333 348.333 198.333 348.333 L 151.333 348.333 151.333 318.500 L 151.333 288.667 198.333 288.667 L 245.333 288.667 245.333 295.833 L 245.333 303.000 259.167 303.000 L 273.000 303.000 272.984 290.083 L 272.969 277.167 261.938 269.250 L 250.908 261.333 198.204 261.354 L 145.500 261.375 134.427 269.271 " stroke="none" fill="#cc0404" fill-rule="evenodd"></path><path id="path3" d="M322.653 23.750 C 323.470 24.621,324.183 25.333,324.236 25.333 C 324.486 25.333,324.222 25.034,322.750 23.653 L 321.167 22.167 322.653 23.750 M76.333 24.167 C 75.524 24.992,74.936 25.667,75.028 25.667 C 75.120 25.667,75.857 24.992,76.667 24.167 C 77.476 23.342,78.064 22.667,77.972 22.667 C 77.880 22.667,77.143 23.342,76.333 24.167 M68.821 32.083 L 67.167 33.833 68.917 32.179 C 69.879 31.269,70.667 30.482,70.667 30.429 C 70.667 30.180,70.358 30.457,68.821 32.083 M330.319 31.750 C 331.137 32.621,331.849 33.333,331.903 33.333 C 332.153 33.333,331.888 33.034,330.417 31.653 L 328.833 30.167 330.319 31.750 M89.154 34.083 L 87.500 35.833 89.250 34.179 C 90.876 32.642,91.153 32.333,90.904 32.333 C 90.851 32.333,90.064 33.121,89.154 34.083 M309.986 33.750 C 310.803 34.621,311.516 35.333,311.569 35.333 C 311.820 35.333,311.555 35.034,310.083 33.653 L 308.500 32.167 309.986 33.750 M61.333 39.833 C 60.524 40.658,59.936 41.333,60.028 41.333 C 60.120 41.333,60.857 40.658,61.667 39.833 C 62.476 39.008,63.064 38.333,62.972 38.333 C 62.880 38.333,62.143 39.008,61.333 39.833 M337.986 39.750 C 338.803 40.621,339.516 41.333,339.569 41.333 C 339.820 41.333,339.555 41.034,338.083 39.653 L 336.500 38.167 337.986 39.750 M317.653 41.750 C 318.470 42.621,319.183 43.333,319.236 43.333 C 319.486 43.333,319.222 43.034,317.750 41.653 L 316.167 40.167 317.653 41.750 M81.333 42.167 C 80.524 42.992,79.936 43.667,80.028 43.667 C 80.120 43.667,80.857 42.992,81.667 42.167 C 82.476 41.342,83.064 40.667,82.972 40.667 C 82.880 40.667,82.143 41.342,81.333 42.167 M53.667 47.833 C 52.857 48.658,52.270 49.333,52.361 49.333 C 52.453 49.333,53.190 48.658,54.000 47.833 C 54.810 47.008,55.397 46.333,55.305 46.333 C 55.214 46.333,54.476 47.008,53.667 47.833 M345.653 47.750 C 347.034 49.222,347.333 49.486,347.333 49.236 C 347.333 49.183,346.621 48.470,345.750 47.653 L 344.167 46.167 345.653 47.750 M74.000 49.833 C 73.190 50.658,72.603 51.333,72.695 51.333 C 72.786 51.333,73.524 50.658,74.333 49.833 C 75.143 49.008,75.730 48.333,75.639 48.333 C 75.547 48.333,74.810 49.008,74.000 49.833 M325.319 49.750 C 326.137 50.621,326.849 51.333,326.903 51.333 C 327.153 51.333,326.888 51.034,325.417 49.653 L 323.833 48.167 325.319 49.750 M46.333 55.500 C 45.524 56.325,44.936 57.000,45.028 57.000 C 45.120 57.000,45.857 56.325,46.667 55.500 C 47.476 54.675,48.064 54.000,47.972 54.000 C 47.880 54.000,47.143 54.675,46.333 55.500 M353.319 55.750 C 354.701 57.222,355.000 57.486,355.000 57.236 C 355.000 57.183,354.287 56.470,353.417 55.653 L 351.833 54.167 353.319 55.750 M66.484 57.750 L 65.167 59.167 66.583 57.849 C 67.362 57.124,68.000 56.487,68.000 56.432 C 68.000 56.180,67.710 56.433,66.484 57.750 M332.986 57.750 C 333.803 58.621,334.516 59.333,334.569 59.333 C 334.820 59.333,334.555 59.034,333.083 57.653 L 331.500 56.167 332.986 57.750 M38.667 63.500 C 37.857 64.325,37.270 65.000,37.361 65.000 C 37.453 65.000,38.190 64.325,39.000 63.500 C 39.810 62.675,40.397 62.000,40.305 62.000 C 40.214 62.000,39.476 62.675,38.667 63.500 M360.986 63.750 C 362.367 65.222,362.667 65.486,362.667 65.236 C 362.667 65.183,361.954 64.470,361.083 63.653 L 359.500 62.167 360.986 63.750 M59.000 65.500 C 58.190 66.325,57.603 67.000,57.695 67.000 C 57.786 67.000,58.524 66.325,59.333 65.500 C 60.143 64.675,60.730 64.000,60.639 64.000 C 60.547 64.000,59.810 64.675,59.000 65.500 M340.653 65.750 C 342.034 67.222,342.333 67.486,342.333 67.236 C 342.333 67.183,341.621 66.470,340.750 65.653 L 339.167 64.167 340.653 65.750 M31.000 71.500 C 30.190 72.325,29.603 73.000,29.695 73.000 C 29.786 73.000,30.524 72.325,31.333 71.500 C 32.143 70.675,32.730 70.000,32.639 70.000 C 32.547 70.000,31.810 70.675,31.000 71.500 M368.653 71.750 C 370.034 73.222,370.333 73.486,370.333 73.236 C 370.333 73.183,369.621 72.470,368.750 71.653 L 367.167 70.167 368.653 71.750 M51.484 73.417 L 50.167 74.833 51.583 73.516 C 52.901 72.290,53.153 72.000,52.901 72.000 C 52.847 72.000,52.209 72.637,51.484 73.417 M348.319 73.750 C 349.701 75.222,350.000 75.486,350.000 75.236 C 350.000 75.183,349.287 74.470,348.417 73.653 L 346.833 72.167 348.319 73.750 M23.667 79.167 C 22.857 79.992,22.270 80.667,22.361 80.667 C 22.453 80.667,23.190 79.992,24.000 79.167 C 24.810 78.342,25.397 77.667,25.305 77.667 C 25.214 77.667,24.476 78.342,23.667 79.167 M376.500 80.000 C 377.403 80.917,378.217 81.667,378.308 81.667 C 378.400 81.667,377.736 80.917,376.833 80.000 C 375.930 79.083,375.117 78.333,375.025 78.333 C 374.933 78.333,375.597 79.083,376.500 80.000 M44.000 81.167 C 43.190 81.992,42.603 82.667,42.695 82.667 C 42.786 82.667,43.524 81.992,44.333 81.167 C 45.143 80.342,45.730 79.667,45.639 79.667 C 45.547 79.667,44.810 80.342,44.000 81.167 M355.986 81.750 C 357.367 83.222,357.667 83.486,357.667 83.236 C 357.667 83.183,356.954 82.470,356.083 81.653 L 354.500 80.167 355.986 81.750 M36.484 89.083 L 35.167 90.500 36.583 89.182 C 37.362 88.458,38.000 87.820,38.000 87.766 C 38.000 87.513,37.710 87.766,36.484 89.083 M363.500 89.667 C 364.403 90.583,365.217 91.333,365.308 91.333 C 365.400 91.333,364.736 90.583,363.833 89.667 C 362.930 88.750,362.117 88.000,362.025 88.000 C 361.933 88.000,362.597 88.750,363.500 89.667 M184.333 116.581 C 184.333 116.720,196.182 116.794,210.664 116.746 L 236.995 116.659 237.085 137.079 L 237.174 157.500 237.170 137.000 L 237.167 116.500 210.750 116.415 C 196.221 116.368,184.333 116.443,184.333 116.581 M335.000 197.167 C 337.837 200.008,340.234 202.333,340.325 202.333 C 340.417 202.333,338.171 200.008,335.333 197.167 C 332.496 194.325,330.100 192.000,330.008 192.000 C 329.916 192.000,332.163 194.325,335.000 197.167 M172.750 194.917 C 180.221 194.967,192.446 194.967,199.917 194.917 C 207.387 194.867,201.275 194.826,186.333 194.826 C 171.392 194.826,165.279 194.867,172.750 194.917 M288.439 194.916 C 292.623 194.969,299.373 194.969,303.439 194.916 C 307.506 194.863,304.083 194.820,295.833 194.820 C 287.583 194.820,284.256 194.863,288.439 194.916 M311.667 196.092 C 311.667 196.142,312.829 197.305,314.250 198.675 L 316.833 201.167 314.342 198.583 C 312.027 196.184,311.667 195.848,311.667 196.092 M326.833 211.667 C 328.291 213.133,329.559 214.333,329.651 214.333 C 329.743 214.333,328.625 213.133,327.167 211.667 C 325.709 210.200,324.441 209.000,324.349 209.000 C 324.257 209.000,325.375 210.200,326.833 211.667 M361.833 224.333 C 364.762 227.267,367.234 229.667,367.326 229.667 C 367.417 229.667,365.096 227.267,362.167 224.333 C 359.238 221.400,356.766 219.000,356.674 219.000 C 356.583 219.000,358.904 221.400,361.833 224.333 M38.167 225.333 C 39.993 227.167,41.562 228.667,41.654 228.667 C 41.746 228.667,40.326 227.167,38.500 225.333 C 36.674 223.500,35.104 222.000,35.013 222.000 C 34.921 222.000,36.340 223.500,38.167 225.333 M337.333 222.425 C 337.333 222.475,338.496 223.638,339.917 225.008 L 342.500 227.500 340.008 224.917 C 337.694 222.517,337.333 222.181,337.333 222.425 M23.833 233.667 C 25.660 235.500,27.229 237.000,27.321 237.000 C 27.412 237.000,25.993 235.500,24.167 233.667 C 22.340 231.833,20.771 230.333,20.679 230.333 C 20.588 230.333,22.007 231.833,23.833 233.667 M350.333 235.758 C 350.333 235.809,351.496 236.971,352.917 238.342 L 355.500 240.833 353.008 238.250 C 350.694 235.851,350.333 235.515,350.333 235.758 M55.500 243.000 C 57.326 244.833,58.896 246.333,58.987 246.333 C 59.079 246.333,57.660 244.833,55.833 243.000 C 54.007 241.167,52.438 239.667,52.346 239.667 C 52.254 239.667,53.674 241.167,55.500 243.000 M41.167 251.333 C 42.993 253.167,44.562 254.667,44.654 254.667 C 44.746 254.667,43.326 253.167,41.500 251.333 C 39.674 249.500,38.104 248.000,38.013 248.000 C 37.921 248.000,39.340 249.500,41.167 251.333 M365.167 251.000 C 366.255 252.100,367.221 253.000,367.312 253.000 C 367.404 253.000,366.589 252.100,365.500 251.000 C 364.411 249.900,363.446 249.000,363.354 249.000 C 363.263 249.000,364.078 249.900,365.167 251.000 M72.833 260.667 C 74.660 262.500,76.229 264.000,76.321 264.000 C 76.412 264.000,74.993 262.500,73.167 260.667 C 71.340 258.833,69.771 257.333,69.679 257.333 C 69.588 257.333,71.007 258.833,72.833 260.667 M58.500 269.000 C 60.326 270.833,61.896 272.333,61.987 272.333 C 62.079 272.333,60.660 270.833,58.833 269.000 C 57.007 267.167,55.438 265.667,55.346 265.667 C 55.254 265.667,56.674 267.167,58.500 269.000 M88.823 276.917 L 90.812 279.000 102.990 278.921 L 115.167 278.842 103.005 278.750 L 90.844 278.658 88.839 276.746 L 86.833 274.833 88.823 276.917 M75.833 286.667 C 77.660 288.500,79.229 290.000,79.321 290.000 C 79.412 290.000,77.993 288.500,76.167 286.667 C 74.340 284.833,72.771 283.333,72.679 283.333 C 72.588 283.333,74.007 284.833,75.833 286.667 M159.487 297.082 C 159.399 297.312,159.366 307.100,159.414 318.833 L 159.500 340.167 198.333 340.167 L 237.167 340.167 237.176 332.583 L 237.186 325.000 237.087 332.500 L 236.987 340.000 198.327 340.000 L 159.667 340.000 159.667 318.500 L 159.667 297.000 198.327 297.000 L 236.987 297.000 237.087 304.083 L 237.186 311.167 237.176 304.000 L 237.167 296.833 198.407 296.749 C 167.575 296.681,159.614 296.749,159.487 297.082 M352.830 400.083 L 346.500 406.500 352.917 400.170 C 356.446 396.688,359.333 393.801,359.333 393.753 C 359.333 393.516,358.711 394.122,352.830 400.083 M50.167 403.667 C 53.463 406.967,56.235 409.667,56.326 409.667 C 56.418 409.667,53.796 406.967,50.500 403.667 C 47.204 400.367,44.432 397.667,44.340 397.667 C 44.249 397.667,46.870 400.367,50.167 403.667 M370.667 404.833 C 367.095 408.408,364.248 411.333,364.340 411.333 C 364.431 411.333,367.429 408.408,371.000 404.833 C 374.571 401.258,377.419 398.333,377.327 398.333 C 377.235 398.333,374.238 401.258,370.667 404.833 M32.000 408.167 C 35.388 411.558,38.235 414.333,38.327 414.333 C 38.418 414.333,35.721 411.558,32.333 408.167 C 28.945 404.775,26.098 402.000,26.007 402.000 C 25.915 402.000,28.612 404.775,32.000 408.167 M320.997 432.250 L 314.833 438.500 321.083 432.337 C 324.521 428.947,327.333 426.134,327.333 426.087 C 327.333 425.849,326.723 426.443,320.997 432.250 M81.667 435.500 C 84.871 438.708,87.568 441.333,87.660 441.333 C 87.751 441.333,85.204 438.708,82.000 435.500 C 78.796 432.292,76.099 429.667,76.007 429.667 C 75.915 429.667,78.462 432.292,81.667 435.500 M337.333 438.500 C 333.762 442.075,330.915 445.000,331.006 445.000 C 331.098 445.000,334.095 442.075,337.667 438.500 C 341.238 434.925,344.085 432.000,343.994 432.000 C 343.902 432.000,340.905 434.925,337.333 438.500 M63.167 439.667 C 66.463 442.967,69.235 445.667,69.326 445.667 C 69.418 445.667,66.796 442.967,63.500 439.667 C 60.204 436.367,57.432 433.667,57.340 433.667 C 57.249 433.667,59.870 436.367,63.167 439.667 " stroke="none" fill="#a48484" fill-rule="evenodd"></path><path id="path4" d="M307.833 43.333 C 308.736 44.250,309.550 45.000,309.642 45.000 C 309.733 45.000,309.070 44.250,308.167 43.333 C 307.264 42.417,306.450 41.667,306.358 41.667 C 306.267 41.667,306.930 42.417,307.833 43.333 M91.154 43.750 L 89.500 45.500 91.250 43.846 C 92.212 42.936,93.000 42.149,93.000 42.096 C 93.000 41.847,92.691 42.124,91.154 43.750 M315.500 51.333 C 316.403 52.250,317.217 53.000,317.308 53.000 C 317.400 53.000,316.736 52.250,315.833 51.333 C 314.930 50.417,314.117 49.667,314.025 49.667 C 313.933 49.667,314.597 50.417,315.500 51.333 M83.667 51.500 C 82.857 52.325,82.270 53.000,82.361 53.000 C 82.453 53.000,83.190 52.325,84.000 51.500 C 84.810 50.675,85.397 50.000,85.305 50.000 C 85.214 50.000,84.476 50.675,83.667 51.500 M76.154 59.417 L 74.500 61.167 76.250 59.513 C 77.876 57.975,78.153 57.667,77.904 57.667 C 77.851 57.667,77.064 58.454,76.154 59.417 M323.167 59.333 C 324.070 60.250,324.883 61.000,324.975 61.000 C 325.067 61.000,324.403 60.250,323.500 59.333 C 322.597 58.417,321.783 57.667,321.692 57.667 C 321.600 57.667,322.264 58.417,323.167 59.333 M68.487 67.417 L 66.833 69.167 68.583 67.513 C 70.209 65.975,70.486 65.667,70.237 65.667 C 70.185 65.667,69.397 66.454,68.487 67.417 M330.833 67.333 C 331.736 68.250,332.550 69.000,332.642 69.000 C 332.733 69.000,332.070 68.250,331.167 67.333 C 330.264 66.417,329.450 65.667,329.358 65.667 C 329.267 65.667,329.930 66.417,330.833 67.333 M61.154 75.083 L 59.500 76.833 61.250 75.179 C 62.876 73.642,63.153 73.333,62.904 73.333 C 62.851 73.333,62.064 74.121,61.154 75.083 M338.500 75.333 C 339.403 76.250,340.217 77.000,340.308 77.000 C 340.400 77.000,339.736 76.250,338.833 75.333 C 337.930 74.417,337.117 73.667,337.025 73.667 C 336.933 73.667,337.597 74.417,338.500 75.333 M53.487 83.083 L 51.833 84.833 53.583 83.179 C 55.209 81.642,55.486 81.333,55.237 81.333 C 55.185 81.333,54.397 82.121,53.487 83.083 M345.986 83.083 C 347.367 84.555,347.667 84.820,347.667 84.569 C 347.667 84.516,346.954 83.803,346.083 82.986 L 344.500 81.500 345.986 83.083 M46.000 90.833 C 45.190 91.658,44.603 92.333,44.695 92.333 C 44.786 92.333,45.524 91.658,46.333 90.833 C 47.143 90.008,47.730 89.333,47.639 89.333 C 47.547 89.333,46.810 90.008,46.000 90.833 M353.653 91.083 C 355.034 92.555,355.333 92.820,355.333 92.569 C 355.333 92.516,354.621 91.803,353.750 90.986 L 352.167 89.500 353.653 91.083 M40.496 156.333 C 40.496 189.242,40.536 202.704,40.583 186.250 C 40.631 169.796,40.631 142.871,40.583 126.417 C 40.536 109.963,40.496 123.425,40.496 156.333 M359.082 129.415 L 359.000 162.331 319.917 162.417 L 280.833 162.503 319.927 162.585 C 350.956 162.650,359.054 162.581,359.180 162.250 C 359.267 162.021,359.299 147.133,359.251 129.167 L 359.163 96.500 359.082 129.415 M272.667 155.673 L 272.667 207.347 257.698 207.257 C 249.466 207.207,242.800 207.279,242.885 207.417 C 242.970 207.554,249.780 207.667,258.020 207.667 L 273.000 207.667 273.000 155.833 C 273.000 127.325,272.925 104.000,272.833 104.000 C 272.742 104.000,272.667 127.253,272.667 155.673 M320.500 217.000 C 322.326 218.833,323.896 220.333,323.987 220.333 C 324.079 220.333,322.660 218.833,320.833 217.000 C 319.007 215.167,317.438 213.667,317.346 213.667 C 317.254 213.667,318.674 215.167,320.500 217.000 M149.601 215.582 C 151.490 215.642,154.490 215.641,156.268 215.582 C 158.045 215.522,156.500 215.473,152.833 215.473 C 149.167 215.474,147.712 215.523,149.601 215.582 M52.500 228.333 C 54.510 230.350,56.230 232.000,56.322 232.000 C 56.414 232.000,54.844 230.350,52.833 228.333 C 50.823 226.317,49.103 224.667,49.011 224.667 C 48.920 224.667,50.490 226.317,52.500 228.333 M336.500 233.333 C 338.326 235.167,339.896 236.667,339.987 236.667 C 340.079 236.667,338.660 235.167,336.833 233.333 C 335.007 231.500,333.438 230.000,333.346 230.000 C 333.254 230.000,334.674 231.500,336.500 233.333 M69.833 246.000 C 71.844 248.017,73.564 249.667,73.655 249.667 C 73.747 249.667,72.177 248.017,70.167 246.000 C 68.156 243.983,66.436 242.333,66.345 242.333 C 66.253 242.333,67.823 243.983,69.833 246.000 M352.500 249.667 C 354.326 251.500,355.896 253.000,355.987 253.000 C 356.079 253.000,354.660 251.500,352.833 249.667 C 351.007 247.833,349.438 246.333,349.346 246.333 C 349.254 246.333,350.674 247.833,352.500 249.667 M359.082 319.156 L 359.000 382.146 357.254 383.990 L 355.508 385.833 357.421 383.996 L 359.335 382.158 359.250 319.162 L 359.165 256.167 359.082 319.156 M86.833 263.333 C 88.844 265.350,90.564 267.000,90.655 267.000 C 90.747 267.000,89.177 265.350,87.167 263.333 C 85.156 261.317,83.436 259.667,83.345 259.667 C 83.253 259.667,84.823 261.317,86.833 263.333 M171.943 261.250 C 186.487 261.298,210.187 261.298,224.610 261.250 C 239.033 261.202,227.133 261.163,198.167 261.163 C 169.200 261.163,157.399 261.202,171.943 261.250 M276.474 318.167 C 276.475 322.017,276.523 323.546,276.582 321.565 C 276.641 319.584,276.641 316.434,276.582 314.565 C 276.522 312.696,276.474 314.317,276.474 318.167 M40.415 348.340 L 40.333 382.181 43.417 385.174 L 46.500 388.167 43.585 385.162 L 40.670 382.157 40.583 348.328 L 40.497 314.500 40.415 348.340 M252.272 333.250 C 256.181 333.303,262.481 333.303,266.272 333.250 C 270.064 333.196,266.867 333.152,259.167 333.153 C 251.467 333.153,248.364 333.196,252.272 333.250 M143.284 384.751 C 143.422 384.889,168.427 384.964,198.851 384.918 L 254.167 384.833 198.600 384.667 C 168.038 384.575,143.146 384.613,143.284 384.751 M329.164 412.417 L 322.500 419.167 329.250 412.503 C 335.522 406.312,336.150 405.667,335.914 405.667 C 335.866 405.667,332.828 408.704,329.164 412.417 M64.000 406.087 C 64.000 406.134,66.962 409.097,70.583 412.670 L 77.167 419.167 70.670 412.583 C 64.634 406.467,64.000 405.849,64.000 406.087 M147.110 436.583 C 176.229 436.630,223.779 436.630,252.777 436.583 C 281.775 436.536,257.950 436.498,199.833 436.498 C 141.717 436.498,117.991 436.536,147.110 436.583 " stroke="none" fill="#df5e5e" fill-rule="evenodd"></path></g></svg>